<svg xmlns="http://www.w3.org/2000/svg" xmlns:xlink="http://www.w3.org/1999/xlink" width="150" height="22" viewBox="0 0 150 22">
  <defs>
    <clipPath id="clip-custom_1">
      <rect width="150" height="22"/>
    </clipPath>
  </defs>
  <g id="custom_1" data-name="custom – 1" clip-path="url(#clip-custom_1)">
    <g id="Group_1" data-name="Group 1" transform="translate(14 0.942)">
      <path id="Path_8" data-name="Path 8" d="M402.44-368.9l-.043.163.308.441.089.046h1.156l.086-.046.309-.441-.042-.163A2.133,2.133,0,0,0,402.44-368.9Z" transform="translate(-306.781 369.428)" fill="#165316"/>
      <path id="Path_9" data-name="Path 9" d="M653.4-311.11l-.292.415v.14l.479.677.091.056h.792l.06-.152a3.033,3.033,0,0,0-.972-1.16Z" transform="translate(-555.68 311.867)" fill="#165316"/>
      <path id="Path_10" data-name="Path 10" d="M655.27-112.168l-.2-.071h-.817l-.074.04-.492.694v.145l.492.69.074.042h1.174l.133-.127A4.1,4.1,0,0,0,655.27-112.168Z" transform="translate(-556.255 114.411)" fill="#165316"/>
      <path id="Path_11" data-name="Path 11" d="M655,127.914h-1.167l-.092.048-.487.7v.135l.487.69.092.046h.816l.192-.066a4.292,4.292,0,0,0,.293-1.405Z" transform="translate(-555.822 -124.005)" fill="#165316"/>
      <path id="Path_12" data-name="Path 12" d="M654.985,369.221h-.8l-.072.041-.491.69v.143l.289.414.162.021a3.289,3.289,0,0,0,.968-1.151Z" transform="translate(-556.191 -363.565)" fill="#165316"/>
      <path id="Path_13" data-name="Path 13" d="M402.7,489.435l-.074.036-.32.444.041.168a2.206,2.206,0,0,0,1.868,0l.039-.168-.312-.444-.074-.036Z" transform="translate(-306.689 -482.909)" fill="#165316"/>
      <path id="Path_14" data-name="Path 14" d="M224.754,370.893l.153-.028.3-.412v-.133l-.493-.7-.079-.04h-.8l-.056.148A3.082,3.082,0,0,0,224.754,370.893Z" transform="translate(-129.457 -363.926)" fill="#165316"/>
      <path id="Path_15" data-name="Path 15" d="M161.479,128.507l.122-.134h1.172l.093.043.492.7v.134l-.492.7-.079.042h-.822l-.2-.067A3.93,3.93,0,0,1,161.479,128.507Z" transform="translate(-67.606 -124.46)" fill="#165316"/>
      <path id="Path_16" data-name="Path 16" d="M160.95-111.628l.2-.06h.821l.083.046.484.692v.135l-.484.687-.083.046-1.178.009-.135-.135A4.694,4.694,0,0,1,160.95-111.628Z" transform="translate(-66.788 113.863)" fill="#165316"/>
      <path id="Path_17" data-name="Path 17" d="M224.579-311.173l.15.027.3.413v.135l-.485.687-.085.045h-.791l-.065-.147A3.12,3.12,0,0,1,224.579-311.173Z" transform="translate(-129.276 311.905)" fill="#165316"/>
      <path id="Path_18" data-name="Path 18" d="M378.014-232h1.18l.084.052.482.689v.137l-.471.662-.095.062h-1.18l-.08-.033-.484-.69v-.137l.484-.689Z" transform="translate(-282.013 233.302)" fill="#165316"/>
      <path id="Path_19" data-name="Path 19" d="M377,9.1l.489-.689.085-.049h1.173l.084.049.485.689v.129l-.485.689-.084.055h-1.173l-.085-.046L377,9.24Z" transform="translate(-281.569 -5.32)" fill="#165316"/>
      <path id="Path_20" data-name="Path 20" d="M377,250.158l.5-.7.073-.038h1.182l.07.038.493.7v.132l-.475.674-.087.061H377.57l-.073-.043-.5-.692Z" transform="translate(-281.569 -244.635)" fill="#165316"/>
      <path id="Path_6" data-name="Path 6" d="M96.5-432.549l.189-.06-.077-.192a3.369,3.369,0,0,1,1.138-1.345l.242.037.058-.223a2.453,2.453,0,0,1,2.256,0l.048.223.262-.036a3.4,3.4,0,0,1,1.126,1.338l-.077.2.2.061a4.588,4.588,0,0,1,.327,1.589l-.145.142.145.152a4.435,4.435,0,0,1-.328,1.589l-.2.062.08.2a3.51,3.51,0,0,1-1.135,1.334l-.241-.037-.066.225a2.544,2.544,0,0,1-2.25,0l-.064-.227-.242.05a3.571,3.571,0,0,1-1.132-1.348l.083-.2-.209-.056a5.579,5.579,0,0,1-.325-1.59l.162-.148-.162-.156A4.717,4.717,0,0,1,96.5-432.549Z" transform="translate(-2.584 434.662)" fill="none" stroke="#707070" stroke-width="0.1"/>
    </g>
    <text id="TURTLENETWORK_" data-name="TURTLENETWORK " transform="translate(14 14.942)" fill="#fff" font-size="10" font-family="Futura-Bold, Futura" font-weight="700"><tspan x="0" y="0">TURTLENETWORK </tspan></text>
    <text id="DEX" transform="translate(115 14.942)" fill="#fff" font-size="12" font-family="Roboto-Regular, Roboto"><tspan x="0" y="0">DEX</tspan></text>
  </g>
</svg>
