<svg xmlns="http://www.w3.org/2000/svg" xmlns:xlink="http://www.w3.org/1999/xlink" width="150" height="22" viewBox="0 0 150 22">
  <defs>
    <clipPath id="clip-custom_1">
      <rect width="150" height="22"/>
    </clipPath>
  </defs>
  <g id="custom_1" data-name="custom – 1" clip-path="url(#clip-custom_1)">
    <g id="Group_1" data-name="Group 1" transform="translate(86.363)">
      <path id="Path_8" data-name="Path 8" d="M402.459-368.8l-.063.237.447.64.129.067h1.679l.126-.067.448-.64-.061-.237A3.1,3.1,0,0,0,402.459-368.8Z" transform="translate(-399.432 369.485)" fill="#165316"/>
      <path id="Path_9" data-name="Path 9" d="M653.534-311.1l-.424.6v.2l.7.982.132.081h1.149l.087-.22a4.4,4.4,0,0,0-1.412-1.685Z" transform="translate(-647.512 312.114)" fill="#165316"/>
      <path id="Path_10" data-name="Path 10" d="M655.985-112.136l-.288-.1H654.51l-.107.058-.714,1.008v.21l.714,1,.107.062h1.7l.193-.185A5.957,5.957,0,0,0,655.985-112.136Z" transform="translate(-648.085 115.308)" fill="#165316"/>
      <path id="Path_11" data-name="Path 11" d="M655.788,127.914h-1.695l-.133.07-.707,1.009v.2l.707,1,.133.066h1.185l.278-.1a6.232,6.232,0,0,0,.425-2.04Z" transform="translate(-647.654 -122.323)" fill="#165316"/>
      <path id="Path_12" data-name="Path 12" d="M655.6,369.221h-1.156l-.105.06-.713,1v.207l.42.6.235.031a4.776,4.776,0,0,0,1.406-1.672Z" transform="translate(-648.021 -361.094)" fill="#165316"/>
      <path id="Path_13" data-name="Path 13" d="M402.875,489.435l-.107.052-.464.644.059.244a3.2,3.2,0,0,0,2.712,0l.056-.244-.453-.644-.108-.052Z" transform="translate(-399.341 -480.045)" fill="#165316"/>
      <path id="Path_14" data-name="Path 14" d="M225.194,371.485l.222-.04.435-.6v-.193l-.715-1.013-.115-.057h-1.159l-.081.215A4.474,4.474,0,0,0,225.194,371.485Z" transform="translate(-222.693 -361.453)" fill="#165316"/>
      <path id="Path_15" data-name="Path 15" d="M161.479,128.568l.177-.195h1.7l.135.063.714,1.01v.194l-.714,1.01-.115.062h-1.194l-.287-.1A5.707,5.707,0,0,1,161.479,128.568Z" transform="translate(-161.046 -122.777)" fill="#165316"/>
      <path id="Path_16" data-name="Path 16" d="M161.083-111.6l.285-.087h1.192l.12.067.7,1.005v.2l-.7,1-.12.067-1.711.013-.2-.2A6.814,6.814,0,0,1,161.083-111.6Z" transform="translate(-160.23 114.762)" fill="#165316"/>
      <path id="Path_17" data-name="Path 17" d="M225.022-311.173l.218.039.429.6v.2l-.7,1-.124.065h-1.149l-.094-.213A4.529,4.529,0,0,1,225.022-311.173Z" transform="translate(-222.512 312.152)" fill="#165316"/>
      <path id="Path_18" data-name="Path 18" d="M378.269-232h1.713l.121.075.7,1v.2l-.683.961-.138.089h-1.713l-.117-.048-.7-1v-.2l.7-1Z" transform="translate(-374.747 233.808)" fill="#165316"/>
      <path id="Path_19" data-name="Path 19" d="M377,9.437l.71-1,.124-.071h1.7l.122.071.7,1v.188l-.7,1-.122.08h-1.7l-.124-.067-.71-1Z" transform="translate(-374.303 -4.029)" fill="#165316"/>
      <path id="Path_20" data-name="Path 20" d="M377,250.49l.721-1.01.106-.055h1.716l.1.055.715,1.01v.191l-.689.979-.127.089h-1.716l-.106-.063-.721-1Z" transform="translate(-374.303 -242.556)" fill="#165316"/>
      <path id="Path_6" data-name="Path 6" d="M96.647-431.621l.274-.087-.112-.278a4.89,4.89,0,0,1,1.653-1.953l.352.054.084-.324a3.561,3.561,0,0,1,3.276,0l.07.324.381-.053A4.939,4.939,0,0,1,104.259-432l-.111.292.289.089a6.661,6.661,0,0,1,.475,2.307l-.21.206.21.22a6.439,6.439,0,0,1-.476,2.307l-.291.089.116.29a5.1,5.1,0,0,1-1.648,1.938l-.349-.054-.1.327a3.694,3.694,0,0,1-3.267,0l-.093-.329-.351.073a5.184,5.184,0,0,1-1.643-1.957l.12-.292-.3-.082a8.1,8.1,0,0,1-.472-2.309l.235-.215-.235-.227A6.849,6.849,0,0,1,96.647-431.621Z" transform="translate(-96.159 434.604)" fill="none" stroke="#707070" stroke-width="0.1"/>
    </g>
    <text id="TURTLE_" data-name="TURTLE " transform="translate(9 20.742)" fill="#165316" font-size="20" font-family="Futura-Bold, Futura" font-weight="700"><tspan x="0" y="0">TURTLE</tspan><tspan y="0" fill="#fff" font-size="19"> </tspan></text>
    <text id="DEX" transform="translate(99.646 20.802)" font-size="22" font-family="Roboto-Regular, Roboto"><tspan x="0" y="0">DEX</tspan></text>
  </g>
</svg>
